<?xml version="1.0" encoding="UTF-8" standalone="no"?>
<!DOCTYPE svg PUBLIC "-//W3C//DTD SVG 1.1//EN"
 "http://www.w3.org/Graphics/SVG/1.1/DTD/svg11.dtd">
<!-- Generated by graphviz version 2.38.0 (20140413.2041)
 -->
<!-- Title: Tree Pages: 1 -->
<svg width="1123pt" height="373pt"
 viewBox="0.00 0.00 1123.00 373.00" xmlns="http://www.w3.org/2000/svg" xmlns:xlink="http://www.w3.org/1999/xlink">
<g id="graph0" class="graph" transform="scale(1 1) rotate(0) translate(4 369)">
<title>Tree</title>
<polygon fill="white" stroke="none" points="-4,4 -4,-369 1119,-369 1119,4 -4,4"/>
<!-- 0 -->
<g id="node1" class="node"><title>0</title>
<path fill="#fffefd" stroke="black" d="M630,-365C630,-365 518,-365 518,-365 512,-365 506,-359 506,-353 506,-353 506,-309 506,-309 506,-303 512,-297 518,-297 518,-297 630,-297 630,-297 636,-297 642,-303 642,-309 642,-309 642,-353 642,-353 642,-359 636,-365 630,-365"/>
<text text-anchor="middle" x="574" y="-349.8" font-family="Helvetica,sans-Serif" font-size="14.00">일반 &lt;= 33.5</text>
<text text-anchor="middle" x="574" y="-334.8" font-family="Helvetica,sans-Serif" font-size="14.00">mse = 22.3</text>
<text text-anchor="middle" x="574" y="-319.8" font-family="Helvetica,sans-Serif" font-size="14.00">samples = 415423</text>
<text text-anchor="middle" x="574" y="-304.8" font-family="Helvetica,sans-Serif" font-size="14.00">value = 1.242</text>
</g>
<!-- 1 -->
<g id="node2" class="node"><title>1</title>
<path fill="#fffefe" stroke="black" d="M522,-261C522,-261 410,-261 410,-261 404,-261 398,-255 398,-249 398,-249 398,-205 398,-205 398,-199 404,-193 410,-193 410,-193 522,-193 522,-193 528,-193 534,-199 534,-205 534,-205 534,-249 534,-249 534,-255 528,-261 522,-261"/>
<text text-anchor="middle" x="466" y="-245.8" font-family="Helvetica,sans-Serif" font-size="14.00">일반 &lt;= 8.75</text>
<text text-anchor="middle" x="466" y="-230.8" font-family="Helvetica,sans-Serif" font-size="14.00">mse = 11.13</text>
<text text-anchor="middle" x="466" y="-215.8" font-family="Helvetica,sans-Serif" font-size="14.00">samples = 412963</text>
<text text-anchor="middle" x="466" y="-200.8" font-family="Helvetica,sans-Serif" font-size="14.00">value = 1.068</text>
</g>
<!-- 0&#45;&gt;1 -->
<g id="edge1" class="edge"><title>0&#45;&gt;1</title>
<path fill="none" stroke="black" d="M538.935,-296.884C529.316,-287.798 518.778,-277.845 508.777,-268.4"/>
<polygon fill="black" stroke="black" points="510.931,-265.621 501.258,-261.299 506.125,-270.71 510.931,-265.621"/>
<text text-anchor="middle" x="501.972" y="-282.589" font-family="Helvetica,sans-Serif" font-size="14.00">True</text>
</g>
<!-- 8 -->
<g id="node9" class="node"><title>8</title>
<path fill="#f6d3ba" stroke="black" d="M746.5,-261C746.5,-261 619.5,-261 619.5,-261 613.5,-261 607.5,-255 607.5,-249 607.5,-249 607.5,-205 607.5,-205 607.5,-199 613.5,-193 619.5,-193 619.5,-193 746.5,-193 746.5,-193 752.5,-193 758.5,-199 758.5,-205 758.5,-205 758.5,-249 758.5,-249 758.5,-255 752.5,-261 746.5,-261"/>
<text text-anchor="middle" x="683" y="-245.8" font-family="Helvetica,sans-Serif" font-size="14.00">11~12_ride &lt;= 7.683</text>
<text text-anchor="middle" x="683" y="-230.8" font-family="Helvetica,sans-Serif" font-size="14.00">mse = 1035.007</text>
<text text-anchor="middle" x="683" y="-215.8" font-family="Helvetica,sans-Serif" font-size="14.00">samples = 2460</text>
<text text-anchor="middle" x="683" y="-200.8" font-family="Helvetica,sans-Serif" font-size="14.00">value = 30.522</text>
</g>
<!-- 0&#45;&gt;8 -->
<g id="edge8" class="edge"><title>0&#45;&gt;8</title>
<path fill="none" stroke="black" d="M609.389,-296.884C619.098,-287.798 629.734,-277.845 639.827,-268.4"/>
<polygon fill="black" stroke="black" points="642.505,-270.688 647.415,-261.299 637.722,-265.577 642.505,-270.688"/>
<text text-anchor="middle" x="646.586" y="-282.586" font-family="Helvetica,sans-Serif" font-size="14.00">False</text>
</g>
<!-- 2 -->
<g id="node3" class="node"><title>2</title>
<path fill="#fffffe" stroke="black" d="M274,-157C274,-157 162,-157 162,-157 156,-157 150,-151 150,-145 150,-145 150,-101 150,-101 150,-95 156,-89 162,-89 162,-89 274,-89 274,-89 280,-89 286,-95 286,-101 286,-101 286,-145 286,-145 286,-151 280,-157 274,-157"/>
<text text-anchor="middle" x="218" y="-141.8" font-family="Helvetica,sans-Serif" font-size="14.00">일반 &lt;= 3.75</text>
<text text-anchor="middle" x="218" y="-126.8" font-family="Helvetica,sans-Serif" font-size="14.00">mse = 4.997</text>
<text text-anchor="middle" x="218" y="-111.8" font-family="Helvetica,sans-Serif" font-size="14.00">samples = 390826</text>
<text text-anchor="middle" x="218" y="-96.8" font-family="Helvetica,sans-Serif" font-size="14.00">value = 0.737</text>
</g>
<!-- 1&#45;&gt;2 -->
<g id="edge2" class="edge"><title>1&#45;&gt;2</title>
<path fill="none" stroke="black" d="M397.905,-197.993C366.321,-185.003 328.618,-169.496 295.905,-156.041"/>
<polygon fill="black" stroke="black" points="296.953,-152.688 286.374,-152.121 294.291,-159.162 296.953,-152.688"/>
</g>
<!-- 5 -->
<g id="node6" class="node"><title>5</title>
<path fill="#fdf6f0" stroke="black" d="M529.5,-157C529.5,-157 402.5,-157 402.5,-157 396.5,-157 390.5,-151 390.5,-145 390.5,-145 390.5,-101 390.5,-101 390.5,-95 396.5,-89 402.5,-89 402.5,-89 529.5,-89 529.5,-89 535.5,-89 541.5,-95 541.5,-101 541.5,-101 541.5,-145 541.5,-145 541.5,-151 535.5,-157 529.5,-157"/>
<text text-anchor="middle" x="466" y="-141.8" font-family="Helvetica,sans-Serif" font-size="14.00">11~12_ride &lt;= 2.534</text>
<text text-anchor="middle" x="466" y="-126.8" font-family="Helvetica,sans-Serif" font-size="14.00">mse = 83.313</text>
<text text-anchor="middle" x="466" y="-111.8" font-family="Helvetica,sans-Serif" font-size="14.00">samples = 22137</text>
<text text-anchor="middle" x="466" y="-96.8" font-family="Helvetica,sans-Serif" font-size="14.00">value = 6.912</text>
</g>
<!-- 1&#45;&gt;5 -->
<g id="edge5" class="edge"><title>1&#45;&gt;5</title>
<path fill="none" stroke="black" d="M466,-192.884C466,-184.778 466,-175.982 466,-167.472"/>
<polygon fill="black" stroke="black" points="469.5,-167.299 466,-157.299 462.5,-167.299 469.5,-167.299"/>
</g>
<!-- 3 -->
<g id="node4" class="node"><title>3</title>
<path fill="#ffffff" stroke="black" d="M124,-53C124,-53 12,-53 12,-53 6,-53 0,-47 0,-41 0,-41 0,-12 0,-12 0,-6 6,-0 12,-0 12,-0 124,-0 124,-0 130,-0 136,-6 136,-12 136,-12 136,-41 136,-41 136,-47 130,-53 124,-53"/>
<text text-anchor="middle" x="68" y="-37.8" font-family="Helvetica,sans-Serif" font-size="14.00">mse = 2.859</text>
<text text-anchor="middle" x="68" y="-22.8" font-family="Helvetica,sans-Serif" font-size="14.00">samples = 341056</text>
<text text-anchor="middle" x="68" y="-7.8" font-family="Helvetica,sans-Serif" font-size="14.00">value = 0.51</text>
</g>
<!-- 2&#45;&gt;3 -->
<g id="edge3" class="edge"><title>2&#45;&gt;3</title>
<path fill="none" stroke="black" d="M165.537,-88.9485C150,-79.1601 133.041,-68.4756 117.685,-58.8015"/>
<polygon fill="black" stroke="black" points="119.178,-55.6058 108.852,-53.2367 115.447,-61.5285 119.178,-55.6058"/>
</g>
<!-- 4 -->
<g id="node5" class="node"><title>4</title>
<path fill="#fefcfb" stroke="black" d="M270,-53C270,-53 166,-53 166,-53 160,-53 154,-47 154,-41 154,-41 154,-12 154,-12 154,-6 160,-0 166,-0 166,-0 270,-0 270,-0 276,-0 282,-6 282,-12 282,-12 282,-41 282,-41 282,-47 276,-53 270,-53"/>
<text text-anchor="middle" x="218" y="-37.8" font-family="Helvetica,sans-Serif" font-size="14.00">mse = 16.887</text>
<text text-anchor="middle" x="218" y="-22.8" font-family="Helvetica,sans-Serif" font-size="14.00">samples = 49770</text>
<text text-anchor="middle" x="218" y="-7.8" font-family="Helvetica,sans-Serif" font-size="14.00">value = 2.288</text>
</g>
<!-- 2&#45;&gt;4 -->
<g id="edge4" class="edge"><title>2&#45;&gt;4</title>
<path fill="none" stroke="black" d="M218,-88.9485C218,-80.7153 218,-71.848 218,-63.4814"/>
<polygon fill="black" stroke="black" points="221.5,-63.2367 218,-53.2367 214.5,-63.2367 221.5,-63.2367"/>
</g>
<!-- 6 -->
<g id="node7" class="node"><title>6</title>
<path fill="#fdf7f3" stroke="black" d="M416,-53C416,-53 312,-53 312,-53 306,-53 300,-47 300,-41 300,-41 300,-12 300,-12 300,-6 306,-0 312,-0 312,-0 416,-0 416,-0 422,-0 428,-6 428,-12 428,-12 428,-41 428,-41 428,-47 422,-53 416,-53"/>
<text text-anchor="middle" x="364" y="-37.8" font-family="Helvetica,sans-Serif" font-size="14.00">mse = 59.195</text>
<text text-anchor="middle" x="364" y="-22.8" font-family="Helvetica,sans-Serif" font-size="14.00">samples = 17734</text>
<text text-anchor="middle" x="364" y="-7.8" font-family="Helvetica,sans-Serif" font-size="14.00">value = 5.712</text>
</g>
<!-- 5&#45;&gt;6 -->
<g id="edge6" class="edge"><title>5&#45;&gt;6</title>
<path fill="none" stroke="black" d="M430.325,-88.9485C420.254,-79.6175 409.303,-69.4722 399.256,-60.1641"/>
<polygon fill="black" stroke="black" points="401.494,-57.4655 391.779,-53.2367 396.736,-62.6004 401.494,-57.4655"/>
</g>
<!-- 7 -->
<g id="node8" class="node"><title>7</title>
<path fill="#fcefe5" stroke="black" d="M553.5,-53C553.5,-53 458.5,-53 458.5,-53 452.5,-53 446.5,-47 446.5,-41 446.5,-41 446.5,-12 446.5,-12 446.5,-6 452.5,-0 458.5,-0 458.5,-0 553.5,-0 553.5,-0 559.5,-0 565.5,-6 565.5,-12 565.5,-12 565.5,-41 565.5,-41 565.5,-47 559.5,-53 553.5,-53"/>
<text text-anchor="middle" x="506" y="-37.8" font-family="Helvetica,sans-Serif" font-size="14.00">mse = 151.256</text>
<text text-anchor="middle" x="506" y="-22.8" font-family="Helvetica,sans-Serif" font-size="14.00">samples = 4403</text>
<text text-anchor="middle" x="506" y="-7.8" font-family="Helvetica,sans-Serif" font-size="14.00">value = 11.749</text>
</g>
<!-- 5&#45;&gt;7 -->
<g id="edge7" class="edge"><title>5&#45;&gt;7</title>
<path fill="none" stroke="black" d="M479.99,-88.9485C483.591,-80.4408 487.479,-71.2562 491.123,-62.6464"/>
<polygon fill="black" stroke="black" points="494.431,-63.81 495.106,-53.2367 487.985,-61.0814 494.431,-63.81"/>
</g>
<!-- 9 -->
<g id="node10" class="node"><title>9</title>
<path fill="#f9e1cf" stroke="black" d="M748,-157C748,-157 618,-157 618,-157 612,-157 606,-151 606,-145 606,-145 606,-101 606,-101 606,-95 612,-89 618,-89 618,-89 748,-89 748,-89 754,-89 760,-95 760,-101 760,-101 760,-145 760,-145 760,-151 754,-157 748,-157"/>
<text text-anchor="middle" x="683" y="-141.8" font-family="Helvetica,sans-Serif" font-size="14.00">6~7_takeoff &lt;= 9.013</text>
<text text-anchor="middle" x="683" y="-126.8" font-family="Helvetica,sans-Serif" font-size="14.00">mse = 530.831</text>
<text text-anchor="middle" x="683" y="-111.8" font-family="Helvetica,sans-Serif" font-size="14.00">samples = 1678</text>
<text text-anchor="middle" x="683" y="-96.8" font-family="Helvetica,sans-Serif" font-size="14.00">value = 21.424</text>
</g>
<!-- 8&#45;&gt;9 -->
<g id="edge9" class="edge"><title>8&#45;&gt;9</title>
<path fill="none" stroke="black" d="M683,-192.884C683,-184.778 683,-175.982 683,-167.472"/>
<polygon fill="black" stroke="black" points="686.5,-167.299 683,-157.299 679.5,-167.299 686.5,-167.299"/>
</g>
<!-- 12 -->
<g id="node13" class="node"><title>12</title>
<path fill="#f0b78e" stroke="black" d="M987,-157C987,-157 849,-157 849,-157 843,-157 837,-151 837,-145 837,-145 837,-101 837,-101 837,-95 843,-89 849,-89 849,-89 987,-89 987,-89 993,-89 999,-95 999,-101 999,-101 999,-145 999,-145 999,-151 993,-157 987,-157"/>
<text text-anchor="middle" x="918" y="-141.8" font-family="Helvetica,sans-Serif" font-size="14.00">loc_distance &lt;= &#45;0.125</text>
<text text-anchor="middle" x="918" y="-126.8" font-family="Helvetica,sans-Serif" font-size="14.00">mse = 1558.219</text>
<text text-anchor="middle" x="918" y="-111.8" font-family="Helvetica,sans-Serif" font-size="14.00">samples = 782</text>
<text text-anchor="middle" x="918" y="-96.8" font-family="Helvetica,sans-Serif" font-size="14.00">value = 50.042</text>
</g>
<!-- 8&#45;&gt;12 -->
<g id="edge12" class="edge"><title>8&#45;&gt;12</title>
<path fill="none" stroke="black" d="M758.649,-193.165C782.103,-182.985 808.115,-171.695 832.206,-161.238"/>
<polygon fill="black" stroke="black" points="833.907,-164.315 841.687,-157.123 831.12,-157.894 833.907,-164.315"/>
</g>
<!-- 10 -->
<g id="node11" class="node"><title>10</title>
<path fill="#f9e3d2" stroke="black" d="M690.5,-53C690.5,-53 595.5,-53 595.5,-53 589.5,-53 583.5,-47 583.5,-41 583.5,-41 583.5,-12 583.5,-12 583.5,-6 589.5,-0 595.5,-0 595.5,-0 690.5,-0 690.5,-0 696.5,-0 702.5,-6 702.5,-12 702.5,-12 702.5,-41 702.5,-41 702.5,-47 696.5,-53 690.5,-53"/>
<text text-anchor="middle" x="643" y="-37.8" font-family="Helvetica,sans-Serif" font-size="14.00">mse = 416.056</text>
<text text-anchor="middle" x="643" y="-22.8" font-family="Helvetica,sans-Serif" font-size="14.00">samples = 1630</text>
<text text-anchor="middle" x="643" y="-7.8" font-family="Helvetica,sans-Serif" font-size="14.00">value = 20.065</text>
</g>
<!-- 9&#45;&gt;10 -->
<g id="edge10" class="edge"><title>9&#45;&gt;10</title>
<path fill="none" stroke="black" d="M669.01,-88.9485C665.409,-80.4408 661.521,-71.2562 657.877,-62.6464"/>
<polygon fill="black" stroke="black" points="661.015,-61.0814 653.894,-53.2367 654.569,-63.81 661.015,-61.0814"/>
</g>
<!-- 11 -->
<g id="node12" class="node"><title>11</title>
<path fill="#eb9e66" stroke="black" d="M831,-53C831,-53 733,-53 733,-53 727,-53 721,-47 721,-41 721,-41 721,-12 721,-12 721,-6 727,-0 733,-0 733,-0 831,-0 831,-0 837,-0 843,-6 843,-12 843,-12 843,-41 843,-41 843,-47 837,-53 831,-53"/>
<text text-anchor="middle" x="782" y="-37.8" font-family="Helvetica,sans-Serif" font-size="14.00">mse = 2234.993</text>
<text text-anchor="middle" x="782" y="-22.8" font-family="Helvetica,sans-Serif" font-size="14.00">samples = 48</text>
<text text-anchor="middle" x="782" y="-7.8" font-family="Helvetica,sans-Serif" font-size="14.00">value = 67.583</text>
</g>
<!-- 9&#45;&gt;11 -->
<g id="edge11" class="edge"><title>9&#45;&gt;11</title>
<path fill="none" stroke="black" d="M717.625,-88.9485C727.401,-79.6175 738.029,-69.4722 747.78,-60.1641"/>
<polygon fill="black" stroke="black" points="750.221,-62.6732 755.038,-53.2367 745.387,-57.6097 750.221,-62.6732"/>
</g>
<!-- 13 -->
<g id="node14" class="node"><title>13</title>
<path fill="#f2bf9b" stroke="black" d="M962.5,-53C962.5,-53 873.5,-53 873.5,-53 867.5,-53 861.5,-47 861.5,-41 861.5,-41 861.5,-12 861.5,-12 861.5,-6 867.5,-0 873.5,-0 873.5,-0 962.5,-0 962.5,-0 968.5,-0 974.5,-6 974.5,-12 974.5,-12 974.5,-41 974.5,-41 974.5,-47 968.5,-53 962.5,-53"/>
<text text-anchor="middle" x="918" y="-37.8" font-family="Helvetica,sans-Serif" font-size="14.00">mse = 876.898</text>
<text text-anchor="middle" x="918" y="-22.8" font-family="Helvetica,sans-Serif" font-size="14.00">samples = 679</text>
<text text-anchor="middle" x="918" y="-7.8" font-family="Helvetica,sans-Serif" font-size="14.00">value = 44.405</text>
</g>
<!-- 12&#45;&gt;13 -->
<g id="edge13" class="edge"><title>12&#45;&gt;13</title>
<path fill="none" stroke="black" d="M918,-88.9485C918,-80.7153 918,-71.848 918,-63.4814"/>
<polygon fill="black" stroke="black" points="921.5,-63.2367 918,-53.2367 914.5,-63.2367 921.5,-63.2367"/>
</g>
<!-- 14 -->
<g id="node15" class="node"><title>14</title>
<path fill="#e58139" stroke="black" d="M1103,-53C1103,-53 1005,-53 1005,-53 999,-53 993,-47 993,-41 993,-41 993,-12 993,-12 993,-6 999,-0 1005,-0 1005,-0 1103,-0 1103,-0 1109,-0 1115,-6 1115,-12 1115,-12 1115,-41 1115,-41 1115,-47 1109,-53 1103,-53"/>
<text text-anchor="middle" x="1054" y="-37.8" font-family="Helvetica,sans-Serif" font-size="14.00">mse = 4459.172</text>
<text text-anchor="middle" x="1054" y="-22.8" font-family="Helvetica,sans-Serif" font-size="14.00">samples = 103</text>
<text text-anchor="middle" x="1054" y="-7.8" font-family="Helvetica,sans-Serif" font-size="14.00">value = 87.204</text>
</g>
<!-- 12&#45;&gt;14 -->
<g id="edge14" class="edge"><title>12&#45;&gt;14</title>
<path fill="none" stroke="black" d="M965.566,-88.9485C979.522,-79.2516 994.743,-68.6752 1008.56,-59.073"/>
<polygon fill="black" stroke="black" points="1010.75,-61.8172 1016.96,-53.2367 1006.75,-56.0687 1010.75,-61.8172"/>
</g>
</g>
</svg>
